<svg id="Capa_1" enable-background="new 0 0 512 512" height="512" viewBox="0 0 512 512" width="512" xmlns="http://www.w3.org/2000/svg"><g><path d="m464.5 0h-417c-26.191 0-47.5 21.309-47.5 47.5v417c0 26.191 21.309 47.5 47.5 47.5h21.963c4.142 0 7.5-3.358 7.5-7.5s-3.358-7.5-7.5-7.5h-21.963c-17.92 0-32.5-14.58-32.5-32.5v-417c0-17.92 14.58-32.5 32.5-32.5h417c17.92 0 32.5 14.58 32.5 32.5v27.466c0 4.142 3.358 7.5 7.5 7.5s7.5-3.358 7.5-7.5v-27.466c0-26.191-21.309-47.5-47.5-47.5z"/><path d="m504.5 102.466c-4.142 0-7.5 3.358-7.5 7.5v283.5h-25c0-9.428 0-308.193 0-325.966 0-15.164-12.336-27.5-27.5-27.5h-377c-15.164 0-27.5 12.336-27.5 27.5v377c0 15.164 12.336 27.5 27.5 27.5h325.966v25h-289.003c-4.142 0-7.5 3.358-7.5 7.5s3.358 7.5 7.5 7.5h296.502c1.975 0 3.894-.787 5.303-2.197l103.534-103.534c1.326-1.325 2.197-3.238 2.197-5.303v-291c.001-4.142-3.357-7.5-7.499-7.5zm-449.5 218.695 114.151-163.317c7.775-11.125 24.195-11.117 31.965 0 6.078 8.695 112.117 160.407 117.882 168.655h-263.998zm282.3 5.339-36.886-52.773 45.733-65.43c7.775-11.125 24.196-11.116 31.965 0l78.888 112.865v5.338zm-269.8-271.5h377c6.893 0 12.5 5.607 12.5 12.5v227.478l-66.592-95.274c-13.718-19.627-42.837-19.626-56.555 0l-42.588 60.932-77.852-111.385c-13.719-19.626-42.837-19.626-56.555 0l-101.858 145.726v-227.477c0-6.893 5.607-12.5 12.5-12.5zm0 402c-6.893 0-12.5-5.607-12.5-12.5v-103h402v51.966h-16.034c-26.191 0-47.5 21.309-47.5 47.5v16.034zm340.966 29.394c0-48.182 0 1.768 0-45.428 0-17.92 14.58-32.5 32.5-32.5h45.428z"/><path d="m293.5 155.354c21.373 0 38.762-17.389 38.762-38.762 0-21.374-17.389-38.762-38.762-38.762s-38.762 17.389-38.762 38.762c0 21.374 17.389 38.762 38.762 38.762zm0-62.523c13.102 0 23.762 10.66 23.762 23.762s-10.66 23.762-23.762 23.762-23.762-10.66-23.762-23.762c0-13.103 10.66-23.762 23.762-23.762z"/></g></svg>